<svg xmlns="http://www.w3.org/2000/svg" viewBox="0 0 640 360">
  <rect width="640" height="360" fill="#e9eee0"/>
  <text x="44" y="63" fill="#173f48" font-family="system-ui" font-size="37" font-weight="800">Lantern Push</text>
  <text x="46" y="94" fill="#507078" font-family="system-ui" font-size="16" letter-spacing="3">PUZZLE ARCADE 04</text>
  <g fill="#fffdf4" stroke="#b8cac0" stroke-width="3"><rect x="207" y="132" width="75" height="75" rx="8"/><rect x="284" y="132" width="75" height="75" rx="8"/><rect x="361" y="132" width="75" height="75" rx="8"/><rect x="207" y="209" width="75" height="75" rx="8"/><rect x="284" y="209" width="75" height="75" rx="8"/><rect x="361" y="209" width="75" height="75" rx="8"/></g>
  <circle cx="399" cy="247" r="30" fill="#f5d68b"/><path d="M399 225l5 17 18 5-18 5-5 17-5-17-18-5 18-5Z" fill="#b4782e"/>
  <rect x="300" y="148" width="42" height="42" rx="6" fill="#d99559" stroke="#9a623b" stroke-width="4"/>
  <circle cx="244" cy="247" r="22" fill="#1d5660"/><path d="M279 168h51" stroke="#1d5660" stroke-width="5" stroke-dasharray="7 6"/>
  <text x="320" y="318" fill="#315f66" font-family="system-ui" font-size="19" text-anchor="middle">Push every lantern home</text>
</svg>
